<svg width="72" height="115" viewBox="0 0 72 115" fill="none" xmlns="http://www.w3.org/2000/svg">
<path opacity="0.29" d="M71.4735 106.077L69.7435 100.887L59.5672 70.3576C63.1985 67.0687 66.1001 63.0551 68.0846 58.5757C70.0692 54.0963 71.0927 49.2506 71.089 44.3513C71.089 43.7068 71.089 43.0623 71.089 42.4291C71.089 41.7959 71.089 41.1514 71.089 40.5069C71.0898 35.9009 70.1833 31.3398 68.4213 27.0841C66.6594 22.8283 64.0764 18.9613 60.82 15.7038C54.2433 9.12503 45.3225 5.42826 36.0202 5.42676C31.4142 5.42602 26.8531 6.33251 22.5973 8.09448C18.3416 9.85646 14.4746 12.4394 11.2171 15.6958C4.63832 22.2725 0.941545 31.1933 0.940046 40.4956C0.940046 41.1401 0.940046 41.7846 0.940046 42.4178C0.940046 43.051 0.940046 43.6955 0.940046 44.34C0.936417 49.2393 1.9599 54.085 3.94447 58.5644C5.92903 63.0438 8.83059 67.0574 12.4619 70.3462L2.28559 100.875L0.51038 106.077C0.454922 106.241 0.424428 106.412 0.419922 106.585C0.422351 106.9 0.525385 107.205 0.713908 107.456C0.756542 107.521 0.805798 107.582 0.860897 107.637C1.12842 107.911 1.48563 108.08 1.86722 108.112H2.07075C2.23086 108.103 2.38795 108.064 2.53435 107.999C2.61587 107.958 2.69513 107.913 2.77179 107.863L13.1064 101.135C13.4072 100.949 13.7604 100.866 14.1128 100.898C14.3329 100.925 14.5448 100.998 14.7347 101.113C15.0407 101.29 15.2733 101.571 15.3905 101.904L19.6306 113.483C19.7086 113.713 19.8423 113.92 20.0199 114.086C20.1975 114.251 20.4134 114.371 20.6483 114.432C20.7947 114.478 20.9472 114.501 21.1005 114.5C21.4054 114.484 21.7011 114.391 21.9599 114.229C22.2259 114.033 22.4268 113.761 22.5365 113.449L33.8436 79.3806C34.5333 79.3806 35.2231 79.4484 35.9241 79.4484C36.6251 79.4484 37.3149 79.4484 38.0046 79.3806L49.3116 113.449C49.4214 113.761 49.6223 114.033 49.8883 114.229C50.0792 114.356 50.2953 114.44 50.5218 114.475C50.7482 114.51 50.9796 114.496 51.1999 114.432C51.4348 114.371 51.6507 114.251 51.8283 114.086C52.0059 113.92 52.1396 113.713 52.2176 113.483L56.4577 101.904C56.5748 101.571 56.8075 101.29 57.1135 101.113C57.3033 100.998 57.5153 100.925 57.7354 100.898C58.0877 100.866 58.441 100.949 58.7417 101.135L65.8087 105.737L69.0764 107.863C69.2204 107.955 69.3764 108.028 69.54 108.078C69.6188 108.089 69.6987 108.089 69.7774 108.078H70.0149C70.4012 108.045 70.762 107.871 71.0287 107.59C71.2955 107.308 71.4497 106.939 71.4622 106.551C71.4878 106.394 71.4916 106.235 71.4735 106.077Z" fill="#153C6B"/>
<path d="M71.4762 101.077L58.6088 62.3618C64.1065 57.7314 68.0478 51.5228 69.8986 44.5773C71.7494 37.6319 71.4202 30.2853 68.9556 23.5332C66.491 16.7811 62.0102 10.9499 56.1204 6.82983C50.2305 2.70976 43.2164 0.5 36.0286 0.5C28.8408 0.5 21.8267 2.70976 15.9369 6.82983C10.047 10.9499 5.56622 16.7811 3.10163 23.5332C0.637039 30.2853 0.307826 37.6319 2.15861 44.5773C4.00939 51.5228 7.95069 57.7314 13.4484 62.3618L0.513129 101.077C0.42025 101.375 0.4201 101.694 0.512698 101.992C0.605296 102.289 0.786261 102.552 1.03159 102.745C1.27692 102.937 1.575 103.051 1.88629 103.07C2.19759 103.089 2.50738 103.013 2.77454 102.852L13.1092 96.0681C13.3029 95.9462 13.5214 95.8691 13.7487 95.8424C13.976 95.8157 14.2064 95.8401 14.4231 95.9138C14.6398 95.9874 14.8373 96.1086 15.0012 96.2683C15.1651 96.428 15.2913 96.6223 15.3706 96.837L19.6108 108.415C19.7154 108.717 19.9116 108.979 20.172 109.165C20.4324 109.35 20.7441 109.45 21.0637 109.45C21.3833 109.45 21.695 109.35 21.9554 109.165C22.2158 108.979 22.412 108.717 22.5167 108.415L35.124 70.5707H36.7523L49.3596 108.415C49.4643 108.717 49.6605 108.979 49.9209 109.165C50.1813 109.35 50.493 109.45 50.8126 109.45C51.1322 109.45 51.4439 109.35 51.7043 109.165C51.9647 108.979 52.1609 108.717 52.2655 108.415L56.5057 96.837C56.585 96.6223 56.7112 96.428 56.8751 96.2683C57.039 96.1086 57.2365 95.9874 57.4532 95.9138C57.6699 95.8401 57.9003 95.8157 58.1276 95.8424C58.3549 95.8691 58.5734 95.9462 58.7671 96.0681L69.1018 102.852C69.3677 103.059 69.694 103.172 70.0305 103.175C70.3671 103.178 70.6953 103.07 70.9648 102.869C71.2344 102.667 71.4304 102.383 71.5228 102.059C71.6151 101.736 71.5988 101.391 71.4762 101.077Z" fill="#F6A019"/>
<path d="M71.4654 101.078L69.7354 95.8991C69.5327 95.8657 69.3398 95.7885 69.17 95.6729L58.8354 88.9452C58.6417 88.8233 58.4232 88.7463 58.1959 88.7196C57.9686 88.6929 57.7382 88.7172 57.5215 88.7909C57.3048 88.8646 57.1073 88.9857 56.9434 89.1454C56.7795 89.3051 56.6532 89.4994 56.574 89.7141L52.3338 101.293C52.2291 101.595 52.033 101.856 51.7726 102.042C51.5122 102.227 51.2005 102.327 50.8809 102.327C50.5612 102.327 50.2496 102.227 49.9892 102.042C49.7288 101.856 49.5326 101.595 49.4279 101.293L40.3823 74.2234C48.859 73.139 56.6491 69.0001 62.2923 62.5826C67.9355 56.165 71.0442 47.9095 71.0357 39.3638C71.0357 38.7193 71.0357 38.0748 71.0357 37.4416C70.5715 45.8684 67.0874 53.846 61.2212 59.9136C55.3551 65.9811 47.4996 69.7325 39.0933 70.4808H38.9463H38.7088H38.494H38.2452H37.8947H37.1258H34.8531H34.0842H33.7224H33.4736H33.2588H33.0214H32.8744C24.4644 69.7319 16.6059 65.9773 10.7393 59.905C4.87266 53.8328 1.39083 45.8498 0.931926 37.4189C0.931926 38.0521 0.931926 38.6966 0.931926 39.3412C0.933054 47.888 4.05185 56.1408 9.7035 62.5523C15.3551 68.9637 23.1515 73.0934 31.6306 74.1669L22.5849 101.236C22.4803 101.538 22.2841 101.8 22.0237 101.985C21.7633 102.171 21.4516 102.27 21.132 102.27C20.8124 102.27 20.5007 102.171 20.2403 101.985C19.9799 101.8 19.7837 101.538 19.679 101.236L15.4389 89.6576C15.3596 89.4429 15.2334 89.2486 15.0695 89.0889C14.9055 88.9292 14.708 88.8081 14.4914 88.7344C14.2747 88.6607 14.0443 88.6363 13.817 88.663C13.5897 88.6897 13.3712 88.7668 13.1775 88.8887L2.84282 95.6164C2.67304 95.7319 2.48011 95.8091 2.27747 95.8425L0.54749 101.032C0.490994 101.196 0.460471 101.368 0.457031 101.541C0.457804 101.74 0.500172 101.937 0.58141 102.118C0.648783 102.277 0.748967 102.419 0.875387 102.536L1.0563 102.683H1.14676H1.20329C1.31793 102.752 1.44456 102.798 1.57643 102.819H1.6895H1.8591H2.09655H2.20962H2.27747C2.44107 102.769 2.59704 102.697 2.74105 102.604L13.0757 95.8199C13.3247 95.6579 13.6154 95.5715 13.9124 95.5712H14.082H14.2403H14.3873H14.4778C14.682 95.6483 14.8668 95.7692 15.0192 95.9255C15.1716 96.0818 15.2878 96.2696 15.3597 96.4757L19.5999 108.054C19.7133 108.387 19.9419 108.667 20.2444 108.846C20.4441 108.966 20.6682 109.039 20.9002 109.06H21.2846H21.4542H21.5673L21.7595 108.993H21.8274L21.9857 108.902C22.234 108.713 22.4192 108.453 22.5171 108.156L33.8242 74.1104C34.5139 74.1104 35.2036 74.1104 35.9047 74.1104C36.6057 74.1104 37.2954 74.1104 37.9852 74.1104L49.2922 108.156C49.3901 108.453 49.5753 108.713 49.8236 108.902V108.902L49.9819 108.993H50.0498L50.242 109.06H50.3551H50.5247H50.8074C51.0393 109.039 51.2635 108.966 51.4632 108.846C51.7657 108.667 51.9943 108.387 52.1077 108.054L56.3478 96.4757C56.4197 96.2696 56.536 96.0818 56.6884 95.9255C56.8408 95.7692 57.0256 95.6483 57.2298 95.5712H57.3089H57.4672H57.6255H57.7951C58.0922 95.5715 58.3828 95.6579 58.6318 95.8199L65.6988 100.422L68.9665 102.548H69.057L69.17 102.604H69.2266H69.2944H69.3962H69.464H69.5771H69.8145C70.2118 102.587 70.5878 102.42 70.8669 102.137C71.146 101.854 71.3073 101.475 71.3184 101.078C71.3673 101.08 71.4164 101.08 71.4654 101.078V101.078Z" fill="#B5730C"/>
<path d="M35.9959 61.6284C50.4274 61.6284 62.1265 49.9293 62.1265 35.4978C62.1265 21.0663 50.4274 9.36719 35.9959 9.36719C21.5643 9.36719 9.86523 21.0663 9.86523 35.4978C9.86523 49.9293 21.5643 61.6284 35.9959 61.6284Z" fill="#FFEDC4"/>
<path d="M46.8518 46.4297C46.8571 46.2687 46.8342 46.108 46.784 45.9548L44.4095 38.6618L52.2114 33.0083C52.3893 32.881 52.5317 32.7103 52.6247 32.5123C52.7178 32.3143 52.7584 32.0957 52.7428 31.8776V28.2819C52.7505 28.1064 52.7225 27.9313 52.6606 27.7669C52.5986 27.6026 52.5041 27.4525 52.3825 27.3257C52.261 27.1989 52.1151 27.098 51.9535 27.0292C51.792 26.9603 51.6181 26.9249 51.4425 26.9251H41.5375C41.2614 26.9244 40.9925 26.8366 40.7691 26.6742C40.5458 26.5118 40.3794 26.283 40.2937 26.0205L37.2408 16.613C37.1535 16.3523 36.9865 16.1255 36.7633 15.9649C36.5401 15.8042 36.2721 15.7178 35.9971 15.7178C35.7221 15.7178 35.454 15.8042 35.2308 15.9649C35.0076 16.1255 34.8406 16.3523 34.7533 16.613L31.7004 26.0205C31.6147 26.283 31.4483 26.5118 31.225 26.6742C31.0017 26.8366 30.7327 26.9244 30.4566 26.9251H20.5516C20.373 26.9246 20.1962 26.961 20.0322 27.0319C19.8682 27.1029 19.7206 27.2068 19.5986 27.3373C19.4766 27.4678 19.3828 27.622 19.3231 27.7904C19.2633 27.9588 19.2389 28.1376 19.2513 28.3158V31.9228C19.2357 32.141 19.2763 32.3595 19.3694 32.5575C19.4625 32.7555 19.6048 32.9263 19.7827 33.0535L27.5846 38.707L25.2101 46.0001C25.1599 46.1532 25.137 46.3139 25.1423 46.475V50.0932C25.1292 50.3406 25.1864 50.5867 25.3074 50.803C25.4283 51.0192 25.6081 51.1967 25.8257 51.3151C26.0434 51.4334 26.2902 51.4876 26.5374 51.4715C26.7847 51.4553 27.0223 51.3695 27.2228 51.2239L35.2282 45.4121C35.4505 45.2469 35.7201 45.1577 35.9971 45.1577C36.274 45.1577 36.5436 45.2469 36.7659 45.4121L44.7713 51.2239C44.9718 51.3695 45.2094 51.4553 45.4567 51.4715C45.7039 51.4876 45.9507 51.4334 46.1684 51.3151C46.3861 51.1967 46.5658 51.0192 46.6868 50.803C46.8077 50.5867 46.865 50.3406 46.8518 50.0932V46.4297Z" fill="#B5730C"/>
<path d="M37.2258 16.5779L40.2787 25.9854C40.3644 26.2479 40.5308 26.4766 40.7541 26.6391C40.9774 26.8015 41.2463 26.8893 41.5225 26.8899H51.4275C51.7047 26.8899 51.9749 26.9777 52.1991 27.1407C52.4234 27.3038 52.5902 27.5337 52.6756 27.7975C52.761 28.0613 52.7607 28.3453 52.6745 28.6089C52.5884 28.8725 52.421 29.1019 52.1963 29.2644L44.1909 35.0762C43.966 35.2364 43.7984 35.4646 43.7129 35.7272C43.6274 35.9898 43.6285 36.2729 43.716 36.5349L46.7689 45.9536C46.8505 46.2157 46.8478 46.4968 46.7612 46.7572C46.6746 47.0177 46.5085 47.2444 46.2863 47.4055C46.064 47.5666 45.7968 47.6539 45.5224 47.6551C45.2479 47.6563 44.9799 47.5714 44.7563 47.4122L36.7509 41.623C36.5265 41.4628 36.2577 41.3767 35.982 41.3767C35.7063 41.3767 35.4375 41.4628 35.2131 41.623L27.2077 47.4462C26.9841 47.6053 26.7161 47.6902 26.4416 47.689C26.1672 47.6878 25.9 47.6005 25.6777 47.4394C25.4555 47.2784 25.2894 47.0516 25.2028 46.7912C25.1162 46.5307 25.1135 46.2496 25.1951 45.9876L28.248 36.5688C28.3355 36.3068 28.3366 36.0237 28.2511 35.7611C28.1656 35.4985 27.998 35.2703 27.7731 35.1102L19.7677 29.2983C19.543 29.1359 19.3756 28.9064 19.2895 28.6428C19.2034 28.3793 19.203 28.0952 19.2884 27.8314C19.3738 27.5676 19.5406 27.3377 19.7649 27.1746C19.9891 27.0116 20.2593 26.9238 20.5366 26.9239H30.4415C30.7177 26.9232 30.9866 26.8354 31.2099 26.673C31.4333 26.5106 31.5996 26.2818 31.6853 26.0193L34.7382 16.6118C34.8219 16.3498 34.9858 16.1207 35.2069 15.957C35.4279 15.7932 35.6948 15.7031 35.9698 15.6993C36.2448 15.6956 36.5141 15.7784 36.7395 15.9361C36.9649 16.0937 37.135 16.3182 37.2258 16.5779Z" fill="#F6A019"/>
</svg>
